# xmcd
# 
# Track frame offsets:
#     150
#     37565
#     59725
#     90255
#     127980
#     145800
# 
# Disc length: 2293
# 
# Revision: 3
# Processed by: cddbd v1.5.2PL0 Copyright (c) Steve Scherf et al.
# Submitted via: BonkEnc v1.0.15
# 
DISCID=4308f306
DTITLE=Lee Morgan - ILee Morgan Indeed!
DYEAR=1956
DGENRE=Jazz
TTITLE0=Roccus
TTITLE1=Reggie Of Chester
TTITLE2=The Lady
TTITLE3=Little T
TTITLE4=Gaza Strip
TTITLE5=Stand By
EXTD=YEAR: 1956
EXTT0=
EXTT1=
EXTT2=
EXTT3=
EXTT4=
EXTT5=
PLAYORDER=
